<svg width="24" height="24" viewBox="0 0 24 24" fill="none" xmlns="http://www.w3.org/2000/svg">
<path d="M23.1429 17.9999V4.28561C23.1429 4.05828 23.0526 3.84026 22.8918 3.67952C22.7311 3.51877 22.5131 3.42847 22.2857 3.42847H1.71432C1.26003 3.42847 0.857178 3.83132 0.857178 4.28561V17.9999C0.857178 18.4542 1.26003 18.857 1.71432 18.857H22.2857C22.74 18.857 23.1429 18.4542 23.1429 17.9999Z" fill="#D7E0FF"/>
<path d="M8.57153 23.1426L10.2858 18.8569H13.7144L15.4287 23.1426H8.57153Z" fill="#D7E0FF"/>
<path d="M10.2857 18.857L8.57146 23.1428M13.7143 18.857L15.4286 23.1428M6.85718 23.1428H17.1429M23.1429 17.9999V4.28561C23.1429 4.05828 23.0526 3.84026 22.8918 3.67952C22.7311 3.51877 22.5131 3.42847 22.2857 3.42847H1.71432C1.26003 3.42847 0.857178 3.83132 0.857178 4.28561V17.9999C0.857178 18.4542 1.26003 18.857 1.71432 18.857H22.2857C22.74 18.857 23.1429 18.4542 23.1429 17.9999Z" stroke="#0B11AC" stroke-width="1.71429" stroke-linecap="round" stroke-linejoin="round"/>
<path d="M8.57143 8.57129L6 11.1427L8.57143 13.7141M15.4286 8.57129L18 11.1427L15.4286 13.7141" stroke="#0B11AC" stroke-width="1.71429" stroke-linecap="round" stroke-linejoin="round"/>
</svg>
