<svg width="24" height="24" viewBox="0 0 24 24" fill="none" xmlns="http://www.w3.org/2000/svg">
<g clip-path="url(#clip0_3907_261)">
<path d="M22.542 6.93001V21.625C22.542 21.8682 22.4454 22.1015 22.2734 22.2734C22.1014 22.4454 21.8682 22.542 21.625 22.542H6.042C5.7988 22.542 5.56555 22.4454 5.39358 22.2734C5.22161 22.1015 5.125 21.8682 5.125 21.625V2.37501C5.125 2.1318 5.22161 1.89856 5.39358 1.72659C5.56555 1.55462 5.7988 1.45801 6.042 1.45801H17.069C17.3677 1.45801 17.6643 1.48567 17.959 1.54101V5.12501C17.959 5.36804 18.0555 5.60113 18.2272 5.77307C18.399 5.94501 18.632 6.04174 18.875 6.04201H22.459C22.5143 6.33534 22.542 6.63168 22.542 6.93101" fill="#66E1FF"/>
<path d="M18.28 5.82201L5.12402 18.985V2.37501C5.12402 2.1318 5.22064 1.89856 5.39261 1.72659C5.56458 1.55462 5.79782 1.45801 6.04102 1.45801H17.068C17.3667 1.45801 17.6634 1.48567 17.958 1.54101V5.12501C17.96 5.25705 17.9895 5.38723 18.0446 5.50724C18.0997 5.62725 18.1792 5.73445 18.278 5.82201" fill="#C2F3FF"/>
<path d="M22.46 6.04202H18.875C18.632 6.04175 18.399 5.94502 18.2272 5.77308C18.0555 5.60114 17.959 5.36805 17.959 5.12502V1.54102C19.0871 1.72225 20.1294 2.25474 20.9373 3.06269C21.7453 3.87064 22.2778 4.91287 22.459 6.04102" fill="#E3E3E3"/>
<path d="M13.375 22.542H21.625C21.8682 22.542 22.1014 22.4454 22.2734 22.2734C22.4454 22.1015 22.542 21.8682 22.542 21.625V6.93501C22.5421 6.21572 22.4006 5.50345 22.1254 4.8389C21.8502 4.17434 21.4467 3.5705 20.9381 3.06189C20.4295 2.55328 19.8257 2.14985 19.1611 1.87465C18.4966 1.59945 17.7843 1.45788 17.065 1.45801H6.042C5.7988 1.45801 5.56555 1.55462 5.39358 1.72659C5.22161 1.89856 5.125 2.1318 5.125 2.37501V8.79201" stroke="#191919" stroke-linecap="round" stroke-linejoin="round"/>
<path d="M17.959 1.53198V5.12498C17.9589 5.24536 17.9824 5.36458 18.0284 5.47583C18.0744 5.58708 18.1419 5.68817 18.2269 5.77334C18.312 5.8585 18.413 5.92606 18.5242 5.97216C18.6354 6.01826 18.7546 6.04198 18.875 6.04198H22.468" stroke="#191919" stroke-linecap="round" stroke-linejoin="round"/>
<path d="M6.95898 22.542C8.41768 22.542 9.81662 21.9625 10.8481 20.9311C11.8795 19.8996 12.459 18.5007 12.459 17.042C12.459 15.5833 11.8795 14.1844 10.8481 13.1529C9.81662 12.1215 8.41768 11.542 6.95898 11.542C5.50029 11.542 4.10135 12.1215 3.0699 13.1529C2.03845 14.1844 1.45898 15.5833 1.45898 17.042C1.45898 18.5007 2.03845 19.8996 3.0699 20.9311C4.10135 21.9625 5.50029 22.542 6.95898 22.542Z" fill="#FFEF5E"/>
<path d="M3.06997 20.931C2.03841 19.8996 1.45883 18.5006 1.45874 17.0418C1.45865 15.5831 2.03804 14.184 3.06947 13.1525C4.1009 12.1209 5.49987 11.5414 6.95862 11.5413C8.41737 11.5412 9.81641 12.1206 10.848 13.152L3.06997 20.931Z" fill="#FFF9BF"/>
<path d="M5.12498 16.125H8.79198M5.12498 17.958H8.79198M6.95898 22.542C8.41768 22.542 9.81662 21.9625 10.8481 20.9311C11.8795 19.8996 12.459 18.5007 12.459 17.042C12.459 15.5833 11.8795 14.1844 10.8481 13.1529C9.81662 12.1215 8.41768 11.542 6.95898 11.542C5.50029 11.542 4.10135 12.1215 3.0699 13.1529C2.03845 14.1844 1.45898 15.5833 1.45898 17.042C1.45898 18.5007 2.03845 19.8996 3.0699 20.9311C4.10135 21.9625 5.50029 22.542 6.95898 22.542Z" stroke="#191919" stroke-linecap="round" stroke-linejoin="round"/>
</g>
<defs>
<clipPath id="clip0_3907_261">
<rect width="24" height="24" fill="white"/>
</clipPath>
</defs>
</svg>
