<svg width="24" height="24" viewBox="0 0 24 24" fill="none" xmlns="http://www.w3.org/2000/svg">
<path d="M3.67816 13.1379C2.96787 13.1379 2.28667 13.4177 1.78442 13.9156C1.28216 14.4136 1 15.0889 1 15.7931V16.1724C1 17.9878 2.16538 19.5232 3.81972 20.5671C5.48325 21.617 7.7352 22.2414 10.1823 22.2414C12.6294 22.2414 14.8805 21.617 16.5448 20.5679C18.1992 19.524 19.3646 17.9886 19.3646 16.1724V15.7931C19.3646 15.0889 19.0824 14.4136 18.5801 13.9156C18.0779 13.4177 17.3967 13.1379 16.6864 13.1379H3.67816Z" fill="#212121"/>
<path d="M3.67816 13.1379C2.96787 13.1379 2.28667 13.4177 1.78442 13.9156C1.28216 14.4136 1 15.0889 1 15.7931V16.1724C1 17.9878 2.16538 19.5232 3.81972 20.5671C5.48325 21.617 7.7352 22.2414 10.1823 22.2414C12.6294 22.2414 14.8805 21.617 16.5448 20.5679C18.1992 19.524 19.3646 17.9886 19.3646 16.1724V15.7931C19.3646 15.0889 19.0824 14.4136 18.5801 13.9156C18.0779 13.4177 17.3967 13.1379 16.6864 13.1379H3.67816Z" fill="url(#paint0_linear_3915_237)"/>
<path d="M3.67816 13.1379C2.96787 13.1379 2.28667 13.4177 1.78442 13.9156C1.28216 14.4136 1 15.0889 1 15.7931V16.1724C1 17.9878 2.16538 19.5232 3.81972 20.5671C5.48325 21.617 7.7352 22.2414 10.1823 22.2414C12.6294 22.2414 14.8805 21.617 16.5448 20.5679C18.1992 19.524 19.3646 17.9886 19.3646 16.1724V15.7931C19.3646 15.0889 19.0824 14.4136 18.5801 13.9156C18.0779 13.4177 17.3967 13.1379 16.6864 13.1379H3.67816Z" fill="url(#paint1_linear_3915_237)"/>
<path d="M3.67816 13.1379C2.96787 13.1379 2.28667 13.4177 1.78442 13.9156C1.28216 14.4136 1 15.0889 1 15.7931V16.1724C1 17.9878 2.16538 19.5232 3.81972 20.5671C5.48325 21.617 7.7352 22.2414 10.1823 22.2414C12.6294 22.2414 14.8805 21.617 16.5448 20.5679C18.1992 19.524 19.3646 17.9886 19.3646 16.1724V15.7931C19.3646 15.0889 19.0824 14.4136 18.5801 13.9156C18.0779 13.4177 17.3967 13.1379 16.6864 13.1379H3.67816Z" fill="url(#paint2_radial_3915_237)" fill-opacity="0.75"/>
<path d="M3.67816 13.1379C2.96787 13.1379 2.28667 13.4177 1.78442 13.9156C1.28216 14.4136 1 15.0889 1 15.7931V16.1724C1 17.9878 2.16538 19.5232 3.81972 20.5671C5.48325 21.617 7.7352 22.2414 10.1823 22.2414C12.6294 22.2414 14.8805 21.617 16.5448 20.5679C18.1992 19.524 19.3646 17.9886 19.3646 16.1724V15.7931C19.3646 15.0889 19.0824 14.4136 18.5801 13.9156C18.0779 13.4177 17.3967 13.1379 16.6864 13.1379H3.67816Z" fill="url(#paint3_radial_3915_237)" fill-opacity="0.55"/>
<path d="M10.1823 11.6207C11.6028 11.6207 12.9652 11.0612 13.9698 10.0653C14.9743 9.06944 15.5386 7.71874 15.5386 6.31034C15.5386 4.90195 14.9743 3.55125 13.9698 2.55536C12.9652 1.55948 11.6028 1 10.1823 1C8.76167 1 7.39927 1.55948 6.39476 2.55536C5.39025 3.55125 4.82593 4.90195 4.82593 6.31034C4.82593 7.71874 5.39025 9.06944 6.39476 10.0653C7.39927 11.0612 8.76167 11.6207 10.1823 11.6207Z" fill="#242424"/>
<path d="M10.1823 11.6207C11.6028 11.6207 12.9652 11.0612 13.9698 10.0653C14.9743 9.06944 15.5386 7.71874 15.5386 6.31034C15.5386 4.90195 14.9743 3.55125 13.9698 2.55536C12.9652 1.55948 11.6028 1 10.1823 1C8.76167 1 7.39927 1.55948 6.39476 2.55536C5.39025 3.55125 4.82593 4.90195 4.82593 6.31034C4.82593 7.71874 5.39025 9.06944 6.39476 10.0653C7.39927 11.0612 8.76167 11.6207 10.1823 11.6207Z" fill="url(#paint4_linear_3915_237)"/>
<path d="M14.7734 18.4482H18.5994V23H14.7734V18.4482Z" fill="#D3D3D3"/>
<path d="M14.7734 18.4482H18.5994V23H14.7734V18.4482Z" fill="url(#paint5_linear_3915_237)"/>
<path d="M15.8814 13.0528C16.1062 12.8633 16.3917 12.7593 16.6868 12.7593C16.9818 12.7593 17.2673 12.8633 17.4921 13.0528L21.2224 16.1965C21.5002 16.4309 21.6609 16.7738 21.6609 17.1357V22.0516C21.6609 22.575 21.2324 22.9998 20.7044 22.9998H18.2175V19.586C18.2175 19.3854 18.1373 19.1929 17.9945 19.0507C17.8516 18.9085 17.6578 18.8282 17.4554 18.8274H15.9181C15.7157 18.8282 15.5219 18.9085 15.379 19.0507C15.2362 19.1929 15.156 19.3854 15.156 19.586V22.9998H12.6691C12.1412 22.9998 11.7126 22.575 11.7126 22.0516V17.1357C11.7126 16.7738 11.8726 16.4309 12.1511 16.1965L15.8814 13.0528Z" fill="#242424"/>
<path d="M15.8814 13.0528C16.1062 12.8633 16.3917 12.7593 16.6868 12.7593C16.9818 12.7593 17.2673 12.8633 17.4921 13.0528L21.2224 16.1965C21.5002 16.4309 21.6609 16.7738 21.6609 17.1357V22.0516C21.6609 22.575 21.2324 22.9998 20.7044 22.9998H18.2175V19.586C18.2175 19.3854 18.1373 19.1929 17.9945 19.0507C17.8516 18.9085 17.6578 18.8282 17.4554 18.8274H15.9181C15.7157 18.8282 15.5219 18.9085 15.379 19.0507C15.2362 19.1929 15.156 19.3854 15.156 19.586V22.9998H12.6691C12.1412 22.9998 11.7126 22.575 11.7126 22.0516V17.1357C11.7126 16.7738 11.8726 16.4309 12.1511 16.1965L15.8814 13.0528Z" fill="url(#paint6_linear_3915_237)"/>
<path fill-rule="evenodd" clip-rule="evenodd" d="M16.0644 11.6585C16.2378 11.5112 16.4586 11.4302 16.6869 11.4302C16.9152 11.4302 17.136 11.5112 17.3094 11.6585L22.6657 16.2102C22.8585 16.374 22.9778 16.607 22.9973 16.8579C23.0168 17.1089 22.935 17.3573 22.7698 17.5484C22.6046 17.7395 22.3696 17.8578 22.1164 17.8771C21.8633 17.8965 21.6128 17.8154 21.42 17.6516L16.6865 13.6271L11.9531 17.6501C11.7601 17.8112 11.5108 17.8902 11.2594 17.87C11.008 17.8497 10.7748 17.7318 10.6107 17.542C10.4465 17.3521 10.3646 17.1056 10.3829 16.8562C10.4011 16.6068 10.518 16.3746 10.7081 16.2102L16.0644 11.6585Z" fill="black"/>
<path fill-rule="evenodd" clip-rule="evenodd" d="M16.0644 11.6585C16.2378 11.5112 16.4586 11.4302 16.6869 11.4302C16.9152 11.4302 17.136 11.5112 17.3094 11.6585L22.6657 16.2102C22.8585 16.374 22.9778 16.607 22.9973 16.8579C23.0168 17.1089 22.935 17.3573 22.7698 17.5484C22.6046 17.7395 22.3696 17.8578 22.1164 17.8771C21.8633 17.8965 21.6128 17.8154 21.42 17.6516L16.6865 13.6271L11.9531 17.6501C11.7601 17.8112 11.5108 17.8902 11.2594 17.87C11.008 17.8497 10.7748 17.7318 10.6107 17.542C10.4465 17.3521 10.3646 17.1056 10.3829 16.8562C10.4011 16.6068 10.518 16.3746 10.7081 16.2102L16.0644 11.6585Z" fill="url(#paint7_linear_3915_237)"/>
<defs>
<linearGradient id="paint0_linear_3915_237" x1="5.36694" y1="14.3479" x2="8.28732" y2="23.7555" gradientUnits="userSpaceOnUse">
<stop offset="0.125" stop-color="#9C6CFE"/>
<stop offset="1" stop-color="#7A41DC"/>
</linearGradient>
<linearGradient id="paint1_linear_3915_237" x1="10.1823" y1="12.0539" x2="14.2701" y2="27.4609" gradientUnits="userSpaceOnUse">
<stop stop-color="#885EDB" stop-opacity="0"/>
<stop offset="1" stop-color="#E362F8"/>
</linearGradient>
<radialGradient id="paint2_radial_3915_237" cx="0" cy="0" r="1" gradientUnits="userSpaceOnUse" gradientTransform="translate(12.8604 19.9655) rotate(90) scale(4.55172 2.10427)">
<stop offset="0.042" stop-color="#0A1852" stop-opacity="0.75"/>
<stop offset="1" stop-color="#0A1852" stop-opacity="0"/>
</radialGradient>
<radialGradient id="paint3_radial_3915_237" cx="0" cy="0" r="1" gradientUnits="userSpaceOnUse" gradientTransform="translate(11.3301 17.3104) rotate(90) scale(1.51724 1.53038)">
<stop stop-color="#0A1852" stop-opacity="0.75"/>
<stop offset="1" stop-color="#0A1852" stop-opacity="0"/>
</radialGradient>
<linearGradient id="paint4_linear_3915_237" x1="7.37324" y1="2.41179" x2="12.7655" y2="11.0966" gradientUnits="userSpaceOnUse">
<stop offset="0.125" stop-color="#9C6CFE"/>
<stop offset="1" stop-color="#7A41DC"/>
</linearGradient>
<linearGradient id="paint5_linear_3915_237" x1="16.6864" y1="18.4482" x2="13.846" y2="23.7555" gradientUnits="userSpaceOnUse">
<stop stop-color="#944600"/>
<stop offset="1" stop-color="#CD8E02"/>
</linearGradient>
<linearGradient id="paint6_linear_3915_237" x1="2.97188" y1="13.8949" x2="10.0706" y2="27.6283" gradientUnits="userSpaceOnUse">
<stop stop-color="#FFD394"/>
<stop offset="1" stop-color="#FFB357"/>
</linearGradient>
<linearGradient id="paint7_linear_3915_237" x1="17.288" y1="9.59806" x2="16.2151" y2="17.3188" gradientUnits="userSpaceOnUse">
<stop stop-color="#FF921F"/>
<stop offset="1" stop-color="#EB4824"/>
</linearGradient>
</defs>
</svg>
