<svg width="24" height="24" viewBox="0 0 24 24" fill="none" xmlns="http://www.w3.org/2000/svg">
<g clip-path="url(#clip0_3916_252)">
<path d="M13.5129 5.30412V11.5221H1.07788V5.30412C1.07815 4.9237 1.22945 4.55896 1.49854 4.29007C1.76762 4.02117 2.13247 3.87012 2.51288 3.87012H12.0779C12.4583 3.87012 12.8231 4.02117 13.0922 4.29007C13.3613 4.55896 13.5126 4.9237 13.5129 5.30412Z" fill="#66E1FF"/>
<path d="M2.51288 3.87012C2.13247 3.87012 1.76762 4.02117 1.49854 4.29007C1.22945 4.55896 1.07815 4.9237 1.07788 5.30412V11.5221H2.32788L9.97988 3.87012H2.51288Z" fill="#C2F3FF"/>
<path d="M19.256 7.69602C20.144 7.69602 20.9958 7.34324 21.6237 6.71527C22.2517 6.0873 22.6045 5.2356 22.6045 4.34752C22.6045 3.45945 22.2517 2.60774 21.6237 1.97978C20.9958 1.35181 20.144 0.999023 19.256 0.999023C18.3679 0.999023 17.5162 1.35181 16.8882 1.97978C16.2603 2.60774 15.9075 3.45945 15.9075 4.34752C15.9075 5.2356 16.2603 6.0873 16.8882 6.71527C17.5162 7.34324 18.3679 7.69602 19.256 7.69602Z" fill="#E3E3E3"/>
<path d="M19.256 3.13902C19.9541 3.14125 20.634 3.36219 21.2001 3.77079C21.7662 4.17939 22.19 4.75511 22.412 5.41702C22.5343 5.07336 22.5989 4.71179 22.603 4.34702C22.6107 3.90255 22.5297 3.46101 22.365 3.04814C22.2002 2.63527 21.9548 2.25935 21.6432 1.94231C21.3316 1.62528 20.96 1.37347 20.55 1.20158C20.1401 1.02969 19.7 0.941162 19.2555 0.941162C18.8109 0.941162 18.3709 1.02969 17.9609 1.20158C17.5509 1.37347 17.1793 1.62528 16.8677 1.94231C16.5561 2.25935 16.3108 2.63527 16.146 3.04814C15.9812 3.46101 15.9003 3.90255 15.908 4.34702C15.912 4.71202 15.977 5.07402 16.099 5.41702C16.321 4.75495 16.745 4.17912 17.3113 3.7705C17.8775 3.36189 18.5577 3.14104 19.256 3.13902Z" fill="white"/>
<path d="M13.5129 11.522V12C13.513 12.1885 13.476 12.3751 13.4039 12.5493C13.3318 12.7234 13.2262 12.8817 13.0929 13.015C12.9596 13.1482 12.8013 13.2539 12.6272 13.326C12.453 13.3981 12.2664 13.4351 12.0779 13.435H2.51288C2.1323 13.435 1.7673 13.2838 1.49818 13.0147C1.22907 12.7456 1.07788 12.3806 1.07788 12V11.522H13.5129Z" fill="white" stroke="#191919" stroke-linecap="round" stroke-linejoin="round"/>
<path d="M13.5129 5.30412V11.5221H1.07788V5.30412C1.07815 4.9237 1.22945 4.55896 1.49854 4.29007C1.76762 4.02117 2.13247 3.87012 2.51288 3.87012H12.0779C12.4583 3.87012 12.8231 4.02117 13.0922 4.29007C13.3613 4.55896 13.5126 4.9237 13.5129 5.30412Z" stroke="#191919" stroke-linecap="round" stroke-linejoin="round"/>
<path d="M8.73377 15.3481V13.4351H5.86377V15.3481H8.73377Z" fill="#E3E3E3" stroke="#191919" stroke-linecap="round" stroke-linejoin="round"/>
<path d="M1.42778 16.0399C1.39119 15.9668 1.37395 15.8856 1.3777 15.804C1.38145 15.7223 1.40607 15.643 1.4492 15.5736C1.49233 15.5042 1.55253 15.447 1.62406 15.4075C1.69559 15.368 1.77606 15.3475 1.85778 15.3479H22.3078C22.3893 15.3478 22.4695 15.3686 22.5408 15.4082C22.6121 15.4479 22.672 15.5051 22.7149 15.5745C22.7578 15.6438 22.7822 15.723 22.7859 15.8045C22.7895 15.8859 22.7723 15.967 22.7358 16.0399L21.6468 18.2169H2.51678L1.42778 16.0399Z" fill="#E3BFB3" stroke="#191919" stroke-linecap="round" stroke-linejoin="round"/>
<path d="M2.51694 18.217L1.26694 22.384C1.2454 22.4555 1.24088 22.5309 1.25374 22.6044C1.2666 22.6779 1.29648 22.7474 1.34099 22.8072C1.3855 22.8671 1.44341 22.9157 1.51008 22.9492C1.57675 22.9827 1.65033 23.0001 1.72494 23H2.63894C2.7416 22.9998 2.84148 22.9666 2.92392 22.9055C3.00635 22.8443 3.06699 22.7582 3.09694 22.66L4.42994 18.217H2.51694ZM21.6469 18.217L22.9019 22.384C22.9235 22.4555 22.928 22.5309 22.9151 22.6044C22.9023 22.6779 22.8724 22.7474 22.8279 22.8072C22.7834 22.8671 22.7255 22.9157 22.6588 22.9492C22.5921 22.9827 22.5185 23.0001 22.4439 23H21.5239C21.4213 22.9998 21.3214 22.9666 21.239 22.9055C21.1565 22.8443 21.0959 22.7582 21.0659 22.66L19.7339 18.217H21.6469Z" fill="#C77F67" stroke="#191919" stroke-linecap="round" stroke-linejoin="round"/>
<path d="M19.256 7.69602C20.144 7.69602 20.9958 7.34324 21.6237 6.71527C22.2517 6.0873 22.6045 5.2356 22.6045 4.34752C22.6045 3.45945 22.2517 2.60774 21.6237 1.97978C20.9958 1.35181 20.144 0.999023 19.256 0.999023C18.3679 0.999023 17.5162 1.35181 16.8882 1.97978C16.2603 2.60774 15.9075 3.45945 15.9075 4.34752C15.9075 5.2356 16.2603 6.0873 16.8882 6.71527C17.5162 7.34324 18.3679 7.69602 19.256 7.69602Z" stroke="#191919" stroke-linecap="round" stroke-linejoin="round"/>
<path d="M19.2559 2.43506V4.34806H20.8099" stroke="#191919" stroke-linecap="round" stroke-linejoin="round"/>
<path d="M17.8208 11.522H20.6908C20.8174 11.5225 20.9387 11.573 21.0282 11.6626C21.1177 11.7521 21.1682 11.8734 21.1688 12V15.348H17.3428V12C17.3433 11.8734 17.3938 11.7521 17.4834 11.6626C17.5729 11.573 17.6942 11.5225 17.8208 11.522Z" fill="#FFEF5E" stroke="#191919" stroke-linecap="round" stroke-linejoin="round"/>
<path d="M19.7338 11.5221V9.60913M17.8208 9.60913L18.7778 11.5221" stroke="#191919" stroke-linecap="round" stroke-linejoin="round"/>
</g>
<defs>
<clipPath id="clip0_3916_252">
<rect width="24" height="24" fill="white"/>
</clipPath>
</defs>
</svg>
