<svg width="24" height="24" viewBox="0 0 24 24" fill="none" xmlns="http://www.w3.org/2000/svg">
<path d="M20.8899 10.3033C21.0163 9.4554 20.9749 8.58735 20.7656 7.7527C20.4891 6.6501 19.9197 5.6059 19.0575 4.74365C18.1952 3.88141 17.151 3.31205 16.0485 3.03558C15.2138 2.82629 14.3457 2.78484 13.4978 2.91123" stroke="#0F172A" stroke-width="2" stroke-linecap="round" stroke-linejoin="round"/>
<path d="M17.0948 9.90173C17.2302 8.99343 16.9483 8.03493 16.2491 7.33573C15.5499 6.63653 14.5914 6.35458 13.6831 6.48998" stroke="#0F172A" stroke-width="2" stroke-linecap="round" stroke-linejoin="round"/>
<path d="M7.18788 4.39722C7.55113 4.39722 7.88583 4.59425 8.06218 4.91185L9.28538 7.11525C9.44553 7.40375 9.45308 7.7527 9.30548 8.04785L8.12708 10.4046C8.12708 10.4046 8.46858 12.1604 9.89778 13.5896C11.327 15.0188 13.0768 15.3544 13.0768 15.3544L15.4333 14.1762C15.7286 14.0285 16.0778 14.0361 16.3664 14.1966L18.5761 15.4251C18.8934 15.6015 19.0902 15.936 19.0902 16.2991V18.8358C19.0902 20.1277 17.8902 21.0607 16.6662 20.6477C14.1522 19.7994 10.2499 18.1843 7.77648 15.7109C5.30303 13.2375 3.68793 9.33515 2.83967 6.8212C2.42666 5.59715 3.3597 4.39722 4.65153 4.39722H7.18788Z" fill="#0FAFFF" fill-opacity="0.3" stroke="#191919" stroke-width="2" stroke-linejoin="round"/>
</svg>
