<svg width="24" height="24" viewBox="0 0 24 24" fill="none" xmlns="http://www.w3.org/2000/svg">
<path d="M19.4875 10.2765C19.2415 5.664 15.4235 2 10.75 2C5.9175 2 2 5.9175 2 10.75C2 13.6125 3.375 16.1545 5.5 17.7505V21.6835C5.5 22.0975 5.8345 22.4335 6.2485 22.4335H15.251C15.665 22.4335 16 22.0975 16 21.6835V19.8375L17.334 20.0625C17.5386 20.097 17.7481 20.0886 17.9493 20.038C18.1505 19.9874 18.339 19.8956 18.5029 19.7684C18.6668 19.6411 18.8026 19.4813 18.9016 19.299C19.0005 19.1166 19.0606 18.9157 19.078 18.709L19.365 15.303C20.29 15.0955 20.955 14.761 21.3865 14.482C21.7735 14.232 21.8185 13.727 21.5605 13.345L19.4875 10.2765Z" fill="#FFD2D2"/>
<path d="M8.5115 7.02851C7.74649 7.46681 7.14773 8.14558 6.8083 8.9593C6.46888 9.77302 6.40781 10.6761 6.63459 11.5281C6.86137 12.3801 7.36329 13.1333 8.06233 13.6706C8.76136 14.2079 9.61833 14.4992 10.5 14.4992C11.3817 14.4992 12.2386 14.2079 12.9377 13.6706C13.6367 13.1333 14.1386 12.3801 14.3654 11.5281C14.5922 10.6761 14.5311 9.77302 14.1917 8.9593C13.8523 8.14558 13.2535 7.46681 12.4885 7.02851C12.4955 6.58884 12.4993 6.07934 12.5 5.50001C12.5 4.22451 12.478 3.29751 12.455 2.67751C12.4335 2.07751 12.028 1.58401 11.43 1.53501C11.1206 1.51132 10.8103 1.49964 10.5 1.50001C10.134 1.50001 9.825 1.51451 9.57 1.53501C8.972 1.58401 8.5665 2.07751 8.545 2.67751C8.5215 3.29751 8.5 4.22451 8.5 5.50001C8.50033 6.07967 8.50417 6.58917 8.5115 7.02851Z" fill="#F9F9F9"/>
<path d="M15.12 3.10596C15.249 3.17696 15.3756 3.25096 15.5 3.32796C17.9685 4.85696 19.619 7.55796 19.6565 10.643L21.53 13.2545C21.8115 13.647 21.7625 14.1775 21.3485 14.4265C20.9335 14.6765 20.317 14.9685 19.4815 15.1705L19.1985 18.5295C19.1815 18.7306 19.1241 18.9263 19.0296 19.1048C18.9352 19.2833 18.8057 19.4408 18.649 19.5681C18.4922 19.6953 18.3113 19.7896 18.1173 19.8452C17.9232 19.9009 17.7198 19.9168 17.5195 19.892L16.1195 19.719V21.5C16.1195 21.765 16.0143 22.0192 15.8269 22.2067C15.6396 22.3942 15.3855 22.4997 15.1205 22.5H6.50697C6.24184 22.4998 5.98762 22.3944 5.80019 22.2069C5.61276 22.0194 5.50747 21.7651 5.50747 21.5V17.75C3.35997 16.154 1.96997 13.6125 1.96997 10.75C1.96997 7.61996 3.63047 4.87496 6.12747 3.32796" stroke="#E13C12" stroke-width="1.5" stroke-linecap="round" stroke-linejoin="round"/>
<path d="M8.5115 7.02851C7.74649 7.46681 7.14773 8.14558 6.8083 8.9593C6.46888 9.77302 6.40781 10.6761 6.63459 11.5281C6.86137 12.3801 7.36329 13.1333 8.06233 13.6706C8.76136 14.2079 9.61833 14.4992 10.5 14.4992C11.3817 14.4992 12.2386 14.2079 12.9377 13.6706C13.6367 13.1333 14.1386 12.3801 14.3654 11.5281C14.5922 10.6761 14.5311 9.77302 14.1917 8.9593C13.8523 8.14558 13.2535 7.46681 12.4885 7.02851C12.4955 6.58884 12.4993 6.07934 12.5 5.50001C12.5 4.22451 12.478 3.29751 12.455 2.67751C12.4335 2.07751 12.028 1.58401 11.43 1.53501C11.1206 1.51132 10.8103 1.49964 10.5 1.50001C10.134 1.50001 9.825 1.51451 9.57 1.53501C8.972 1.58401 8.5665 2.07751 8.545 2.67751C8.5215 3.29751 8.5 4.22451 8.5 5.50001C8.50033 6.07967 8.50417 6.58917 8.5115 7.02851Z" stroke="#E13C12" stroke-width="1.5" stroke-linecap="round" stroke-linejoin="round"/>
<path d="M10.5 14.5C12 16 14.3 17 16.5 17" stroke="#E13C12" stroke-width="1.5" stroke-linecap="round" stroke-linejoin="round"/>
</svg>
